<?xml version="1.0" standalone="no"?><!DOCTYPE svg PUBLIC "-//W3C//DTD SVG 1.1//EN" "http://www.w3.org/Graphics/SVG/1.1/DTD/svg11.dtd"><svg t="1681480561131" class="icon" viewBox="0 0 1024 1024" version="1.1" xmlns="http://www.w3.org/2000/svg" p-id="1975" width="200" height="200" xmlns:xlink="http://www.w3.org/1999/xlink"><path d="M928 222v622.8a83.19 83.19 0 0 1-83.2 83.2H222A126 126 0 0 1 96 802V222A125.93 125.93 0 0 1 222 96h580a126 126 0 0 1 126 126z" fill="#FF6161" p-id="1976"></path><path d="M731.1 928H222A126 126 0 0 1 96 802V370q12.42-0.5 25-0.5 15.06 0 29.93 0.72C445.31 384.42 685.22 606.47 727 892.83q2.55 17.43 4.1 35.17z" fill="#FFFFFF" opacity=".2" p-id="1977"></path><path d="M928 222v622.8a82.87 82.87 0 0 1-6.69 32.74A635.16 635.16 0 0 1 774.7 894.6q-24.06 0-47.69-1.77c-291-21.67-527.21-240-576.13-522.58a638.8 638.8 0 0 1 8.24-257.47A125.48 125.48 0 0 1 222 96h580a126 126 0 0 1 126 126z" fill="#FFFFFF" opacity=".14" p-id="1978"></path><path d="M777.87 287.35c-1.36 17.48-19.4 32.29-37.31 32.36-214.77 9.81-217.4 82.57-217.4 82.57v334.39s2.63-76.38 222.87-83.12c0.1 0-0.1 0 0 0s-0.07 0 0 0c17.26-0.2 32-14.61 32-31.81V287.33zM283.44 570.5c1.14 0.57-1.14 0 0 0-17.91-0.07-36-14.87-37.31-32.35H246v83.6h0.13c1.35 17.48 19.4 32.29 37.31 32.36 214.77 9.81 217.4 82.57 217.4 82.57v-83.6s-2.63-72.77-217.4-82.58z m0-125.4c1.14 0.57-1.14-0.05 0 0-17.91-0.06-36-14.87-37.31-32.35H246v83.6h0.13c1.35 17.47 19.4 32.28 37.31 32.35 214.77 9.81 217.4 82.57 217.4 82.57v-83.6s-2.63-72.75-217.4-82.57z m0-125.39c1.14 0.57-1.14 0 0 0-17.91-0.07-36-14.88-37.31-32.36H246v83.6h0.13c1.35 17.48 19.4 32.29 37.31 32.35 214.77 9.82 217.4 82.58 217.4 82.58v-83.6s-2.63-72.76-217.4-82.57z" fill="#FFFFFF" p-id="1979"></path></svg>